<?xml version="1.0" encoding="utf-8"?>
<!-- Generator: Adobe Illustrator 15.0.0, SVG Export Plug-In . SVG Version: 6.00 Build 0)  -->
<!DOCTYPE svg PUBLIC "-//W3C//DTD SVG 1.1//EN" "http://www.w3.org/Graphics/SVG/1.1/DTD/svg11.dtd">
<svg version="1.1" id="Layer_1" xmlns="http://www.w3.org/2000/svg" xmlns:xlink="http://www.w3.org/1999/xlink" x="0px" y="0px"
	 width="133.344px" height="144.478px" viewBox="0 0 133.344 144.478" enable-background="new 0 0 133.344 144.478"
	 xml:space="preserve">
<path fill="#76B82C" d="M133.216,94.057c-0.422-1.836-1.194-3.624-2.355-5.264c-5.398-7.63-16.591-8.856-23.571-1.938
	c-2.392,2.372-3.832,5.504-4.252,8.77l-4.996,3.462l-5.083-7.185c-0.96-1.355-2.865-1.688-4.235-0.737l-1.113,0.771
	c-0.148-0.388-0.294-0.77-0.444-1.165c-0.549-1.436-1.116-2.922-1.69-4.432c-0.302-0.778-0.604-1.565-0.908-2.354
	c-0.432-1.016-0.995-1.986-1.677-2.876c-0.324-0.432-0.768-0.92-1.053-1.222L81,78.981c-0.557-0.601-1.111-1.201-1.663-1.797
	c-1.1-1.189-2.183-2.36-3.23-3.495c-2.096-2.266-4.052-4.383-5.729-6.195c-0.587-0.634-1.125-1.216-1.637-1.769
	c8.365-7.69,13.191-18.976,12.12-31.103C79.016,13.756,60.426-1.679,39.341,0.146C18.256,1.971,2.659,20.367,4.504,41.233
	C5.95,57.592,17.688,70.609,32.851,74.591c-0.062,1.413-0.164,3.771-0.292,6.732c-0.108,2.456-0.232,5.32-0.367,8.392
	c-0.065,1.534-0.135,3.121-0.205,4.732c-0.035,0.807-0.07,1.618-0.106,2.435l-0.053,1.224c-0.023,0.414-0.046,1.07-0.012,1.605
	c0.053,1.115,0.254,2.219,0.582,3.271c0.28,0.799,0.558,1.593,0.835,2.381c0.539,1.522,1.069,3.021,1.582,4.471
	c0.142,0.398,0.278,0.783,0.416,1.173l-1.353,0.118c-1.666,0.145-2.911,1.613-2.766,3.262l0.774,8.736l-6.077,0.524
	c-2.442-2.232-5.579-3.717-8.952-4.013c-9.842-0.859-17.618,7.201-16.798,16.48c0.175,1.994,0.744,3.855,1.615,5.53
	c0.991,1.907,3.087,2.997,5.246,2.812l15.743-1.363l3.178-0.275c0.399-0.034,0.747-0.28,0.913-0.642
	c0.331-0.717,0.987-1.853,1.842-1.927l4.544-0.393c1.093-0.097,2.085,0.589,2.409,1.584c0.095,0.287,0.364,0.48,0.669,0.454
	l9.502-0.798l0.2-0.017c1.667-0.146,2.912-1.613,2.766-3.263l-0.018-0.198l-1.116-12.632l-1.055-11.934
	c-0.145-1.649-1.629-2.881-3.296-2.737l-1.775,0.153c-0.197-0.786-0.397-1.588-0.601-2.408c-0.373-1.492-0.758-3.032-1.148-4.6
	c-0.187-0.756-0.375-1.52-0.564-2.284c-0.101-0.52-0.138-1.051-0.105-1.573c0.015-0.282,0.044-0.445,0.101-0.845l0.171-1.215
	c0.113-0.808,0.226-1.615,0.338-2.414c0.225-1.598,0.445-3.169,0.658-4.692c0.426-3.043,0.825-5.884,1.168-8.317
	c0.373-2.669,0.679-4.847,0.879-6.273c1.222,0.011,2.456-0.032,3.699-0.139c5.495-0.477,10.611-2.085,15.148-4.562
	c0.848,0.758,1.82,1.626,2.918,2.609c1.844,1.647,3.993,3.571,6.296,5.629c1.152,1.031,2.344,2.096,3.554,3.178
	c0.604,0.54,1.213,1.085,1.826,1.632l0.92,0.822c0.303,0.271,0.429,0.376,0.626,0.584c0.362,0.378,0.681,0.808,0.941,1.271
	c0.352,0.707,0.702,1.411,1.052,2.109c0.717,1.447,1.424,2.873,2.107,4.252c0.376,0.76,0.744,1.501,1.105,2.229l-1.46,1.011
	c-1.371,0.95-1.706,2.836-0.747,4.192l6.941,9.812l7.35,10.389l0.115,0.162c0.961,1.355,2.867,1.689,4.237,0.739l0.166-0.114
	l7.799-5.433c0.249-0.175,0.33-0.493,0.215-0.773c-0.397-0.969-0.084-2.122,0.817-2.746l3.736-2.59
	c0.704-0.487,1.942-0.033,2.663,0.306c0.361,0.17,0.787,0.137,1.114-0.091l2.615-1.811l12.944-8.97
	C132.798,98.318,133.695,96.149,133.216,94.057 M19.297,30.86c-3.25,0.282-6.114-2.098-6.399-5.313
	c-0.283-3.215,2.121-6.05,5.369-6.331c3.249-0.281,6.114,2.098,6.399,5.313C24.949,27.745,22.545,30.579,19.297,30.86
	 M32.715,29.698c-3.249,0.282-6.114-2.097-6.397-5.311c-0.285-3.217,2.118-6.052,5.368-6.333c3.249-0.281,6.113,2.098,6.398,5.313
	C38.369,26.583,35.965,29.417,32.715,29.698"/>
<rect fill="none" width="133.344" height="144.478"/>
</svg>
