<?xml version="1.0" encoding="utf-8"?>
<!-- Generator: Adobe Illustrator 15.0.0, SVG Export Plug-In . SVG Version: 6.00 Build 0)  -->
<!DOCTYPE svg PUBLIC "-//W3C//DTD SVG 1.1//EN" "http://www.w3.org/Graphics/SVG/1.1/DTD/svg11.dtd">
<svg version="1.1" id="Layer_1" xmlns="http://www.w3.org/2000/svg" xmlns:xlink="http://www.w3.org/1999/xlink" x="0px" y="0px"
	 width="441.709px" height="176.134px" viewBox="0 0 441.709 176.134" enable-background="new 0 0 441.709 176.134"
	 xml:space="preserve">
<g id="Logo">
	<defs>
		<rect id="SVGID_1_" x="-21.469" y="-21.215" width="484.803" height="219.777"/>
	</defs>
	<clipPath id="SVGID_2_">
		<use xlink:href="#SVGID_1_"  overflow="visible"/>
	</clipPath>
	<path clip-path="url(#SVGID_2_)" fill="#FFFFFF" d="M176.105,168.48l-14.315-36.519V27.641C161.79,12.438,149.351,0,134.148,0
		H27.641C12.438,0,0,12.438,0,27.641V134.15c0,15.201,12.438,27.641,27.641,27.641h107.922l36.104,11.436
		C174.553,174.14,177.21,171.299,176.105,168.48 M100.344,30.676c12.917,0,19.632,11.581,20.52,17.836
		c1.335,9.425-5.789,16.15-10.455,15.87c-1.2-0.073-3.533-0.334-4.814-0.334c-7.953,0-12.515,5.196-12.515,10.817
		c0,4.455,2.493,7.902,9.758,10.554c1.886,0.698,3.006,1.155,4.139,1.74c1.124,0.606,0.415,2.056-1.401,1.227l-0.006,0.007
		c-2.209-0.911-5.045-1.837-8.119-2.974c-4.892-1.786-9.451-4.087-12.154-6.503C77.417,71.872,74.17,64.441,74.17,56.771
		C74.17,51.076,78.874,30.676,100.344,30.676 M25.63,56.771c0-5.696,4.702-26.095,26.172-26.095
		c12.919,0,19.633,11.581,20.52,17.836c1.337,9.425-5.787,16.15-10.456,15.87c-1.197-0.073-3.531-0.334-4.812-0.334
		c-7.955,0-12.515,5.196-12.515,10.817c0,4.455,2.494,7.902,9.757,10.554c1.889,0.698,3.006,1.155,4.141,1.74
		c1.123,0.606,0.413,2.056-1.401,1.227l-0.007,0.007c-2.209-0.911-5.044-1.837-8.118-2.974c-4.893-1.786-9.453-4.087-12.154-6.503
		C28.876,71.872,25.63,64.441,25.63,56.771 M60.938,131.142c-12.918,0-19.633-11.582-20.52-17.836
		c-1.336-9.426,5.788-16.151,10.454-15.87c1.2,0.073,3.533,0.333,4.814,0.333c7.953,0,12.515-5.197,12.515-10.817
		c0-4.456-2.492-7.902-9.757-10.554c-1.888-0.698-3.007-1.157-4.14-1.742c-1.124-0.604-0.415-2.056,1.401-1.228l0.006-0.004
		c2.211,0.91,5.045,1.837,8.119,2.974c4.891,1.786,9.451,4.087,12.155,6.503c7.879,7.043,11.126,14.475,11.126,22.145
		C87.111,110.743,82.407,131.142,60.938,131.142 M109.479,131.142c-12.919,0-19.633-11.582-20.519-17.836
		c-1.337-9.426,5.789-16.151,10.456-15.87c1.197,0.073,3.533,0.333,4.812,0.333c7.955,0,12.515-5.197,12.515-10.817
		c0-4.456-2.493-7.902-9.757-10.554c-1.889-0.698-3.006-1.157-4.141-1.742c-1.123-0.604-0.413-2.056,1.401-1.228l0.007-0.004
		c2.21,0.91,5.045,1.837,8.119,2.974c4.893,1.786,9.453,4.087,12.154,6.503c7.879,7.043,11.126,14.475,11.126,22.145
		C135.651,110.743,130.949,131.142,109.479,131.142"/>
	<path clip-path="url(#SVGID_2_)" fill="#624C3E" d="M217.375,36.653c-9.035,0-14.371,3.959-14.371,11.531
		c0,18.156,36.486,5.42,36.486,31.408c0,12.046-8.69,18.759-21.685,18.759c-8.432,0-15.317-2.668-21.083-7.057
		c-0.774-0.516-1.204-1.376-1.204-2.409c0-1.636,1.291-2.926,2.926-2.926c0.603,0,1.204,0.171,1.72,0.516
		c4.734,3.7,10.327,6.109,17.642,6.109c9.723,0,15.661-4.131,15.661-12.992c0-19.877-36.485-7.058-36.485-31.408
		c0-10.842,8.174-17.296,20.393-17.296c7.313,0,13.339,2.152,18.673,5.594c0.773,0.515,1.377,1.461,1.377,2.495
		c0,1.636-1.289,2.925-2.926,2.925c-0.688,0-1.29-0.171-1.72-0.516C228.388,38.545,223.485,36.653,217.375,36.653"/>
	<path clip-path="url(#SVGID_2_)" fill="#624C3E" d="M248.095,49.302c0-1.634,1.29-2.926,2.926-2.926s2.927,1.292,2.927,2.926
		v45.349c0,1.635-1.291,2.925-2.927,2.925s-2.926-1.29-2.926-2.925V49.302z M251.021,30.888c2.065,0,3.786,1.722,3.786,3.786
		c0,2.065-1.721,3.787-3.786,3.787s-3.788-1.722-3.788-3.787C247.233,32.609,248.956,30.888,251.021,30.888"/>
	<path clip-path="url(#SVGID_2_)" fill="#624C3E" d="M302.133,48.442l0.344-0.258c2.582-1.635,5.853-2.582,9.637-2.582
		c10.414,0,16.695,6.971,16.695,16.692V94.65c0,1.636-1.29,2.926-2.926,2.926c-1.635,0-2.926-1.29-2.926-2.926V62.294
		c0-6.538-4.475-10.927-10.844-10.927c-2.578,0-4.904,0.774-6.625,1.979c-0.516,0.344-1.118,0.516-1.721,0.516
		c-1.635,0-2.925-1.29-2.925-2.926C300.843,49.905,301.274,49.044,302.133,48.442 M276.749,46.549
		c1.893-0.603,3.787-0.947,6.023-0.947c10.412,0,16.693,6.971,16.693,16.692V94.65c0,1.636-1.29,2.926-2.926,2.926
		c-1.634,0-2.926-1.29-2.926-2.926V62.294c0-6.538-4.475-10.927-10.842-10.927c-1.549,0-2.927,0.431-4.217,0.861
		c-0.346,0.086-0.773,0.172-1.205,0.172c-1.635,0-2.924-1.29-2.924-2.926C274.426,48.098,275.2,46.979,276.749,46.549
		 M267.197,97.576c-1.636,0-2.926-1.29-2.926-2.926V49.302c0-1.635,1.29-2.926,2.926-2.926s2.925,1.291,2.925,2.926V94.65
		C270.209,96.286,268.833,97.576,267.197,97.576"/>
	<path clip-path="url(#SVGID_2_)" fill="#624C3E" d="M410.816,48.355c3.013-1.72,6.712-2.753,11.015-2.753
		c12.391,0,19.879,8.175,19.879,19.878v29.17c0,1.636-1.291,2.926-2.926,2.926s-2.927-1.29-2.927-2.926V65.48
		c0-8.434-5.592-14.113-14.026-14.113c-3.096,0-5.766,0.861-7.917,2.152c-0.516,0.344-1.032,0.43-1.548,0.43
		c-1.635,0-3.011-1.376-3.011-3.012C409.355,49.905,409.956,48.872,410.816,48.355 M402.125,97.576c-1.636,0-2.926-1.29-2.926-2.926
		V49.302c0-1.635,1.29-2.926,2.926-2.926s2.926,1.291,2.926,2.926V94.65C405.137,96.286,403.761,97.576,402.125,97.576"/>
	<path clip-path="url(#SVGID_2_)" fill="#624C3E" d="M279.524,153.246c0.518-0.344,1.205-0.688,1.894-0.688
		c1.635,0,2.926,1.292,2.926,2.927c0,1.203-0.775,2.151-1.722,2.668c-4.216,2.838-9.291,4.303-14.541,4.303
		c-14.543,0-26.59-11.792-26.59-26.42c0-14.541,12.047-26.329,26.59-26.329c10.068,0,16.522,5.506,20.479,11.529v-7.829
		c0-1.637,1.291-2.927,2.926-2.927s2.927,1.29,2.927,2.927v45.348c0,1.635-1.292,2.926-2.927,2.926c-1.55,0-2.926-1.463-2.926-2.926
		v-22.719c0-11.357-9.208-20.564-20.479-20.564c-11.36,0-20.566,9.207-20.566,20.564c0,11.446,9.206,20.652,20.566,20.652
		C272.211,156.687,276.083,155.398,279.524,153.246"/>
	<path clip-path="url(#SVGID_2_)" fill="#624C3E" d="M315.323,172.262l27.879-60.147c0.689-1.463,2.496-2.065,3.958-1.377
		c1.464,0.688,2.065,2.41,1.376,3.873l-27.879,60.147c-0.689,1.465-2.496,2.065-3.958,1.376
		C315.234,175.447,314.633,173.726,315.323,172.262 M316.699,148.857l-15.834-34.246c-0.688-1.463-0.087-3.186,1.378-3.873
		c1.462-0.688,3.27-0.086,3.957,1.377l15.834,34.246c0.688,1.465,0.085,3.186-1.377,3.873
		C319.194,150.922,317.387,150.321,316.699,148.857"/>
	<path clip-path="url(#SVGID_2_)" fill="#624C3E" d="M372.977,115.47c-7.4,0-11.961,2.839-11.961,7.314
		c0,16.521,32.441,1.549,32.441,24.524c0,9.552-7.917,15.145-20.309,15.145c-6.627,0-13.424-2.065-18.502-5.164
		c-0.859-0.517-1.377-1.46-1.377-2.579c0-2.412,2.496-3.788,4.476-2.67c4.218,2.41,9.811,4.646,15.403,4.646
		c8.863,0,14.285-3.442,14.285-9.637c0-16.176-32.443-1.377-32.443-24.093c0-9.123,8.176-13.252,17.986-13.252
		c6.454,0,11.187,1.376,15.918,3.958c1.033,0.517,1.809,1.463,1.809,2.667c0,2.237-2.497,3.701-4.561,2.496
		C382.184,116.932,378.313,115.47,372.977,115.47"/>
	<path clip-path="url(#SVGID_2_)" fill="#624C3E" d="M215.224,115.47c-7.4,0-11.961,2.839-11.961,7.314
		c0,16.521,32.441,1.549,32.441,24.524c0,9.552-7.916,15.145-20.307,15.145c-6.627,0-13.426-2.065-18.503-5.164
		c-0.86-0.517-1.376-1.46-1.376-2.579c0-2.412,2.496-3.788,4.475-2.67c4.217,2.41,9.81,4.646,15.404,4.646
		c8.861,0,14.283-3.442,14.283-9.637c0-16.176-32.442-1.377-32.442-24.093c0-9.123,8.176-13.252,17.986-13.252
		c6.454,0,11.187,1.376,15.919,3.958c1.032,0.517,1.808,1.463,1.808,2.667c0,2.237-2.495,3.701-4.562,2.496
		C224.431,116.932,220.559,115.47,215.224,115.47"/>
	<path clip-path="url(#SVGID_2_)" fill="#FFFFFF" d="M364.004,45.431c-14.638,0-26.547,11.908-26.547,26.545
		c0,14.637,11.909,26.546,26.547,26.546c4.259,0,8.398-1.006,12.133-2.93l7.236,2.744c0.67,0.255,1.371,0.379,2.062,0.379
		c1.516,0,3.004-0.592,4.114-1.703c1.618-1.619,2.138-4.035,1.327-6.178l-2.857-7.534c1.662-3.524,2.531-7.388,2.531-11.325
		C390.551,57.339,378.643,45.431,364.004,45.431 M364.004,51.248c11.448,0,20.729,9.281,20.729,20.729c0,4-1.133,7.736-3.096,10.903
		l3.8,10.018l-9.843-3.733c-3.308,2.236-7.297,3.541-11.59,3.541c-11.447,0-20.729-9.281-20.729-20.729
		C343.276,60.529,352.557,51.248,364.004,51.248"/>
	<path clip-path="url(#SVGID_2_)" fill="#624C3E" d="M408.212,157.527c0,2.143-1.735,3.882-3.881,3.882
		c-2.143,0-3.88-1.739-3.88-3.882s1.737-3.881,3.88-3.881C406.477,153.646,408.212,155.384,408.212,157.527"/>
	<path clip-path="url(#SVGID_2_)" fill="#FFFFFF" d="M424.961,157.527c0,2.143-1.736,3.882-3.881,3.882s-3.88-1.739-3.88-3.882
		s1.735-3.881,3.88-3.881S424.961,155.384,424.961,157.527"/>
	<path clip-path="url(#SVGID_2_)" fill="#FFFFFF" d="M441.709,157.527c0,2.143-1.737,3.882-3.881,3.882s-3.88-1.739-3.88-3.882
		s1.736-3.881,3.88-3.881S441.709,155.384,441.709,157.527"/>
</g>
</svg>
