<?xml version="1.0" encoding="utf-8"?>
<!-- Generator: Adobe Illustrator 15.0.0, SVG Export Plug-In . SVG Version: 6.00 Build 0)  -->
<!DOCTYPE svg PUBLIC "-//W3C//DTD SVG 1.1//EN" "http://www.w3.org/Graphics/SVG/1.1/DTD/svg11.dtd">
<svg version="1.1" xmlns="http://www.w3.org/2000/svg" xmlns:xlink="http://www.w3.org/1999/xlink" x="0px" y="0px"
	 width="446.12px" height="303.916px" viewBox="0 0 446.12 303.916" enable-background="new 0 0 446.12 303.916"
	 xml:space="preserve">
<g id="Layer_2">
</g>
<g id="Layer_1">
	<g>
		<g>
			<defs>
				<rect id="SVGID_1_" x="-144.152" y="-217.414" width="617.139" height="517.348"/>
			</defs>
			<clipPath id="SVGID_2_">
				<use xlink:href="#SVGID_1_"  overflow="visible"/>
			</clipPath>
		</g>
		<path fill="#FFFFFF" d="M135.306,177.551c0,3.363-2.609,6.088-5.828,6.088c-3.219,0-5.827-2.725-5.827-6.088
			s2.608-6.09,5.827-6.09C132.696,171.461,135.306,174.188,135.306,177.551 M121.461,177.551c0,3.363-2.61,6.088-5.828,6.088
			c-3.218,0-5.826-2.725-5.826-6.088s2.608-6.09,5.826-6.09C118.851,171.461,121.461,174.188,121.461,177.551 M160.367,187.266
			c0-20.665-16.928-37.418-37.811-37.418c-20.882,0-37.809,16.753-37.809,37.418s16.927,37.418,37.809,37.418
			C143.439,224.684,160.367,207.931,160.367,187.266"/>
		<path fill="#FFFFFF" d="M116.776,273.45h-9.231c-1.652,0-3.001,1.337-3.001,2.97v8.652h-6.018
			c-2.208-2.402-5.161-4.129-8.45-4.706c-9.6-1.683-17.943,5.578-17.943,14.766c0,1.978,0.396,3.854,1.106,5.574
			c0.81,1.959,2.773,3.21,4.913,3.21h15.591h3.147c0.396,0,0.758-0.212,0.954-0.553c0.387-0.678,1.13-1.738,1.978-1.738h4.5
			c1.084,0,1.999,0.757,2.23,1.762c0.067,0.293,0.315,0.506,0.617,0.506l9.409,0.023h0.198c1.65,0,3.002-1.337,3.002-2.971v-0.197
			v-12.51V276.42C119.778,274.787,118.427,273.45,116.776,273.45"/>
		<path fill="#FFFFFF" d="M133.701,273.45h9.233c1.651,0,3.001,1.337,3.001,2.97v8.652h6.018c2.208-2.402,5.16-4.129,8.45-4.706
			c9.6-1.683,17.944,5.578,17.944,14.766c0,1.978-0.397,3.854-1.108,5.574c-0.809,1.959-2.771,3.21-4.91,3.21h-15.591h-3.148
			c-0.396,0-0.758-0.212-0.953-0.553c-0.387-0.678-1.129-1.738-1.978-1.738h-4.5c-1.084,0-1.998,0.757-2.231,1.762
			c-0.067,0.293-0.316,0.506-0.617,0.506l-9.41,0.023h-0.199c-1.648,0-3-1.337-3-2.971v-0.197v-12.51V276.42
			C130.701,274.787,132.053,273.45,133.701,273.45"/>
		<polygon fill="#FFFFFF" points="105.534,209.562 107.953,285.475 114.248,288.683 114.731,211.702 		"/>
		<polygon fill="#FFFFFF" points="133.609,209.562 136.03,285.475 142.324,288.683 142.806,211.702 		"/>
		<path fill="#FFFFFF" d="M62.807,56.082c2.47-20.756,21.297-35.581,42.054-33.11c20.754,2.468,35.578,21.296,33.111,42.051
			c-2.469,20.758-21.299,35.581-42.054,33.112C75.162,95.666,60.337,76.836,62.807,56.082 M114.703,68.889
			c1.017,0.764,2.46,0.559,3.224-0.459c0.762-1.016,0.557-2.457-0.458-3.224l-10.859-8.161c-1.016-0.764-2.459-0.56-3.224,0.457
			c-0.663,0.884-0.596,2.086,0.096,2.887c0.107,0.124,0.226,0.236,0.36,0.338L114.703,68.889 M100.903,54.131
			c1.271,0.032,2.33-0.969,2.363-2.24s-0.969-2.33-2.241-2.363l-13.58-0.355c-1.272-0.033-2.328,0.971-2.362,2.24
			c-0.016,0.598,0.197,1.148,0.56,1.566c0.408,0.473,1.007,0.779,1.681,0.796L100.903,54.131"/>
		<path fill="#FFFFFF" d="M99.121,130.338l8.844-1.74c1.582-0.311,3.128,0.715,3.436,2.279l1.631,8.289l5.765-1.137
			c1.662-2.718,4.165-4.928,7.209-6.102c8.876-3.422,18.239,1.959,19.97,10.762c0.373,1.895,0.349,3.767-0.008,5.547
			c-0.405,2.031-2.051,3.599-4.1,4.002l-14.936,2.94l-3.015,0.594c-0.378,0.076-0.766-0.06-1.017-0.35
			c-0.5-0.576-1.409-1.452-2.222-1.291l-4.312,0.849c-1.039,0.204-1.771,1.102-1.804,2.107c-0.009,0.295-0.207,0.543-0.496,0.601
			l-9.009,1.798l-0.19,0.037c-1.582,0.311-3.128-0.714-3.437-2.279l-0.037-0.188l-2.359-11.984l-2.229-11.321
			C96.497,132.186,97.54,130.65,99.121,130.338"/>
		<path fill="#FFFFFF" d="M42.055,113.651l-3.363-8.362c-0.602-1.496-2.304-2.23-3.784-1.637l-7.837,3.152l-2.193-5.449
			c1.373-2.877,1.86-6.18,1.183-9.371c-1.974-9.307-11.589-14.219-19.912-10.869c-1.79,0.72-3.347,1.762-4.646,3.033
			c-1.479,1.446-1.896,3.68-1.117,5.619l5.682,14.121l1.146,2.851c0.145,0.359,0.469,0.609,0.847,0.661
			c0.756,0.105,1.986,0.391,2.294,1.158l1.64,4.078c0.396,0.982,0.043,2.086-0.782,2.662c-0.24,0.168-0.343,0.469-0.233,0.742
			l3.408,8.532l0.072,0.179c0.601,1.496,2.305,2.232,3.784,1.637l0.179-0.072l11.33-4.557l10.706-4.307
			C41.938,116.857,42.657,115.146,42.055,113.651"/>
		<path fill="#FFFFFF" d="M38.679,108.229l19.041-9.384l12.178-16.314l6.256,6.758c0,0-11.351,11.63-14.303,13.393
			c-2.952,1.764-21.464,9.086-21.464,9.086L38.679,108.229z"/>
		<path fill="#FFFFFF" d="M94.417,96.38l8.218,0.567c0,0,2.083,14.295,2.063,16.075c-0.02,1.783-0.22,19.496-0.22,19.496
			l-3.519,0.465c0,0-1.688-15.659-1.432-18.261C99.784,112.123,94.417,96.38,94.417,96.38"/>
		<path fill="#FFFFFF" d="M92.691,10.637c0,0,6.327-9.152-0.518-10.526C85.33-1.265,92.691,10.637,92.691,10.637"/>
		<path fill="#FFFFFF" d="M114.776,21.602c2.835,0.907,3.159,2.828,5.661,4.226c0.182-0.154,0.37-0.298,0.546-0.462
			c-6.494-1.939-4.809-14.091-11.576-14.484c-3.887-0.226-6.635,3.596-8.59,6.962c-2.327-1.468-4.655-2.937-6.982-4.403
			c-0.372-0.235-0.784-0.48-1.221-0.426c-0.476,0.06-0.83,0.452-1.138,0.82c-1.354,1.606-2.705,3.214-4.06,4.821
			c-2.411-1.096-3.675-3.711-5.475-5.651c-1.802-1.942-5.238-3.119-6.912-1.065c-2.215,2.715,1.572,7.064-0.084,10.155
			c-1.003,1.871-4.038,2.14-5.354,0.477c-1.244,0.579-0.534,2.449-0.74,3.807c-0.217,1.445-1.632,2.383-2.983,2.94
			c-1.353,0.556-2.857,0.97-3.812,2.079c-0.952,1.109-0.87,3.224,0.523,3.669c-1.448,1.851-2.896,3.701-4.346,5.553
			c0.375,0.982,0.75,1.963,1.125,2.945c1.023,0.2,2.053,0.26,3.081,0.224C71.817,24.755,93.959,14.938,114.776,21.602"/>
	</g>
	<path fill="#FFFFFF" d="M345.481,256.789c0.496,0,0.986-0.037,1.461-0.111c-0.434,1.076-0.671,2.256-0.671,3.488
		c0,5.18,4.197,9.382,9.377,9.382c1.9,0,3.673-0.568,5.148-1.542v24.688c-1.708-4.067-6.154-8.723-17.636-7.842
		c4.045,16.074,14.334,14.688,17.636,13.785v3.557c0,1.658,1.347,3.004,3.007,3.004c1.662,0,3.007-1.346,3.007-3.004v-3.557
		c3.304,0.903,13.591,2.289,17.637-13.785c-11.479-0.881-15.926,3.771-17.637,7.842v-24.688c1.479,0.974,3.248,1.542,5.152,1.542
		c5.179,0,9.378-4.202,9.378-9.382c0-1.232-0.24-2.412-0.675-3.492c0.478,0.075,0.966,0.115,1.463,0.115
		c5.18,0,9.377-4.199,9.377-9.378c0-4.241-2.814-7.821-6.677-8.983c1.871-1.715,3.047-4.178,3.047-6.915
		c0-5.179-4.198-9.38-9.378-9.38c-1.985,0-3.822,0.617-5.339,1.668c-0.322-4.883-4.389-8.744-9.355-8.744
		c-4.965,0-9.031,3.861-9.355,8.744c-1.514-1.051-3.355-1.668-5.336-1.668c-5.18,0-9.379,4.201-9.379,9.38
		c0,2.737,1.173,5.2,3.049,6.915c-3.863,1.162-6.68,4.742-6.68,8.983C336.102,252.59,340.298,256.789,345.481,256.789
		 M349.881,243.228c0-7.687,6.234-13.921,13.922-13.921c7.689,0,13.922,6.234,13.922,13.921c0,7.69-6.232,13.923-13.922,13.923
		C356.116,257.15,349.881,250.918,349.881,243.228"/>
	<path fill="#FFFFFF" d="M418.008,168.588c-2.422,3.409-5.578,4.85-7.865,6.882c2.964,1.785,5.439,4.712,7.801,7.871
		c2.491-3.118,5.089-5.983,8.051-7.763C423.7,173.487,420.474,172.057,418.008,168.588"/>
	<path fill="#FFFFFF" d="M417.963,204.648c-3.111,0-7.931-1.303-9.457-4.322c-0.673-1.33-0.22-2.491,0.911-3.352
		c8.319-6.282,14.502-23.106,25.36-20.448c-4.621,5.179-3.996,14.239-5.593,20.147C427.75,201.99,423.487,204.648,417.963,204.648"
		/>
	<path fill="#FFFFFF" d="M406.702,196.159c-1.435-5.909-0.971-14.601-5.46-19.633c6.599-1.614,10.986,3.292,15.103,8.86l-0.85,1.105
		c-2.514,3.279-5.008,6.529-7.591,8.479C407.475,195.277,407.022,195.74,406.702,196.159"/>
	<path fill="#FFFFFF" d="M421.131,290.268c5.111-10.381,9.4-22.129,24.988-23.709c-15.152,8.639-9.131,30.395-24.791,32.631
		l0.044,3.477c0,3.308-6.728,3.308-6.728,0l0.045-3.477c-15.66-2.236-9.64-23.992-24.792-32.629
		c15.589,1.578,19.878,13.326,24.99,23.707l0.332-83.931c0.974,0.167,1.911,0.247,2.743,0.247c0.978,0,1.924-0.073,2.838-0.219
		L421.131,290.268z"/>
</g>
</svg>
