<?xml version="1.0" encoding="utf-8"?>
<!-- Generator: Adobe Illustrator 15.0.0, SVG Export Plug-In . SVG Version: 6.00 Build 0)  -->
<!DOCTYPE svg PUBLIC "-//W3C//DTD SVG 1.1//EN" "http://www.w3.org/Graphics/SVG/1.1/DTD/svg11.dtd">
<svg version="1.1" xmlns="http://www.w3.org/2000/svg" xmlns:xlink="http://www.w3.org/1999/xlink" x="0px" y="0px"
	 width="141.648px" height="342.134px" viewBox="0 0 141.648 342.134" enable-background="new 0 0 141.648 342.134"
	 xml:space="preserve">
<g id="Layer_2" display="none">
	
		<rect x="-342.249" y="-62.879" display="inline" fill="#FF00FF" stroke="#000000" stroke-miterlimit="10" width="641" height="493"/>
</g>
<g id="Layer_1">
	<g>
		
			<rect x="1.569" y="256.53" transform="matrix(-0.2145 -0.9767 0.9767 -0.2145 -202.3759 364.8604)" fill="#FFFFFF" width="87.902" height="14.548"/>
		<g>
			<defs>
				
					<rect id="SVGID_1_" x="-73.53" y="67.421" transform="matrix(-0.9654 -0.2607 0.2607 -0.9654 -16.2526 360.8177)" width="178.671" height="228.131"/>
			</defs>
			<clipPath id="SVGID_2_">
				<use xlink:href="#SVGID_1_"  overflow="visible"/>
			</clipPath>
			<path clip-path="url(#SVGID_2_)" fill="#FFFFFF" d="M14.332,89.033L0,92.179c-0.869-3.956,1.636-7.87,5.593-8.739
				C9.548,82.572,13.461,85.075,14.332,89.033"/>
		</g>
	</g>
	<g>
		<path fill="#FFFFFF" d="M70.382,285.892c-3.539-12.912,4.16-26.298,17.201-29.897c13.038-3.6,26.477,3.95,30.018,16.86
			c3.54,12.913-4.161,26.299-17.2,29.898S73.921,298.804,70.382,285.892 M88.622,270.964c1.193,1.681,3.54,2.063,5.236,0.853
			c1.699-1.21,2.104-3.555,0.908-5.237c-1.193-1.682-3.539-2.064-5.235-0.854C87.833,266.935,87.428,269.283,88.622,270.964
			 M81.613,275.963c1.195,1.681,3.539,2.063,5.236,0.853c1.697-1.21,2.104-3.555,0.91-5.237c-1.194-1.682-3.539-2.063-5.237-0.853
			C80.825,271.936,80.417,274.28,81.613,275.963"/>
		<path fill="#FFFFFF" d="M102.082,300.968c0,0,0.996,1.842,2.488,4.609c0.747,1.382,1.618,2.995,2.551,4.723
			c0.468,0.863,0.948,1.758,1.44,2.666c0.244,0.453,0.491,0.91,0.74,1.37l0.371,0.689c0.124,0.228,0.177,0.317,0.25,0.484
			c0.137,0.306,0.23,0.631,0.287,0.966c0.057,0.501,0.114,0.999,0.17,1.493c0.115,1.025,0.226,2.035,0.337,3.011
			c0.218,1.954,0.421,3.777,0.596,5.34c0.349,3.125,0.581,5.207,0.581,5.207c0.09,0.814,0.83,1.396,1.651,1.3
			c0.771-0.089,1.338-0.752,1.329-1.505c0,0-0.032-2.097-0.081-5.243c-0.024-1.573-0.054-3.407-0.083-5.374
			c-0.015-0.982-0.029-1.999-0.046-3.029c-0.011-0.535-0.021-1.073-0.031-1.613c-0.039-0.704-0.161-1.41-0.379-2.09
			c-0.099-0.328-0.259-0.716-0.364-0.959l-0.305-0.722c-0.202-0.48-0.404-0.96-0.605-1.435c-0.399-0.95-0.794-1.886-1.177-2.789
			c-0.763-1.811-1.474-3.5-2.086-4.947c-1.222-2.896-2.036-4.826-2.036-4.826c-0.658-1.562-2.476-2.291-4.056-1.627
			c-1.582,0.666-2.33,2.473-1.67,4.037C101.993,300.792,102.037,300.883,102.082,300.968"/>
		<path fill="#FFFFFF" d="M109.796,322.862l5.765-1.593c1.028-0.285,2.101,0.318,2.382,1.34l1.483,5.404l3.756-1.037
			c0.966-1.881,2.515-3.468,4.47-4.396c5.706-2.705,12.16,0.392,13.732,6.135c0.339,1.234,0.413,2.475,0.265,3.673
			c-0.17,1.364-1.182,2.481-2.518,2.852l-9.735,2.688l-1.965,0.541c-0.248,0.069-0.512-0.002-0.689-0.18
			c-0.358-0.356-1.005-0.891-1.533-0.745l-2.81,0.776c-0.678,0.186-1.119,0.816-1.092,1.486c0.007,0.192-0.111,0.368-0.298,0.42
			l-5.873,1.637l-0.123,0.035c-1.03,0.283-2.104-0.318-2.383-1.34l-0.035-0.123l-2.142-7.816l-2.024-7.384
			C108.149,324.214,108.765,323.146,109.796,322.862"/>
		<path fill="#FFFFFF" d="M85.984,298.387c0,0-0.802,1.946-2.004,4.866c-0.602,1.459-1.304,3.162-2.055,4.987
			c-0.374,0.913-0.764,1.855-1.157,2.813c-0.197,0.479-0.396,0.962-0.598,1.446l-0.299,0.728c-0.104,0.245-0.262,0.637-0.357,0.966
			c-0.212,0.685-0.333,1.394-0.365,2.099c-0.008,0.539-0.014,1.078-0.02,1.612c-0.009,1.032-0.018,2.048-0.027,3.032
			c-0.018,1.966-0.033,3.801-0.048,5.373c-0.026,3.148-0.045,5.246-0.045,5.246c-0.009,0.818,0.655,1.482,1.481,1.485
			c0.775,0.001,1.419-0.59,1.5-1.341c0,0,0.219-2.087,0.546-5.219c0.165-1.565,0.356-3.393,0.562-5.35
			c0.102-0.979,0.208-1.99,0.315-3.018c0.052-0.496,0.108-0.996,0.16-1.498c0.055-0.336,0.148-0.663,0.281-0.971
			c0.071-0.168,0.124-0.26,0.247-0.49l0.366-0.697c0.245-0.463,0.489-0.926,0.731-1.385c0.484-0.917,0.96-1.819,1.421-2.692
			c0.922-1.748,1.782-3.378,2.519-4.775c1.477-2.796,2.459-4.659,2.459-4.659c0.797-1.51,0.213-3.366-1.304-4.146
			c-1.516-0.781-3.391-0.189-4.188,1.322C86.063,298.208,86.021,298.298,85.984,298.387"/>
		<path fill="#FFFFFF" d="M84.033,322.994l-5.775-1.476c-1.033-0.264-2.101,0.36-2.373,1.386l-1.447,5.436l-3.764-0.963
			c-0.978-1.862-2.538-3.418-4.5-4.307c-5.722-2.592-12.153,0.636-13.689,6.408c-0.332,1.242-0.397,2.484-0.241,3.678
			c0.178,1.36,1.199,2.46,2.537,2.802l9.752,2.493l1.969,0.503c0.249,0.063,0.51-0.013,0.688-0.194
			c0.357-0.363,0.999-0.911,1.529-0.775l2.814,0.719c0.677,0.174,1.124,0.796,1.102,1.464c-0.007,0.194,0.112,0.368,0.302,0.415
			l5.881,1.519l0.125,0.034c1.031,0.263,2.101-0.361,2.374-1.388l0.032-0.123l2.091-7.859l1.977-7.425
			C85.688,324.313,85.065,323.257,84.033,322.994"/>
	</g>
	<polygon fill="#FFFFFF" points="128.444,198.141 126.812,199.451 111.124,260.333 114.097,259.292 	"/>
	<g>
		<defs>
			<rect id="SVGID_3_" x="126.307" y="-3.293" width="13.745" height="199.995"/>
		</defs>
		<clipPath id="SVGID_4_">
			<use xlink:href="#SVGID_3_"  overflow="visible"/>
		</clipPath>
		<path clip-path="url(#SVGID_4_)" fill="#FFFFFF" d="M127.223,186.845c-0.123,0.045-0.26-0.018-0.306-0.141
			c-0.045-0.124,0.021-0.261,0.142-0.305c0.125-0.045,0.263,0.019,0.307,0.143C127.412,186.664,127.347,186.799,127.223,186.845"/>
		<path clip-path="url(#SVGID_4_)" fill="#FFFFFF" d="M127.102,185.835c0.128-0.023,0.254,0.064,0.274,0.193
			c0.023,0.129-0.063,0.252-0.192,0.274c-0.131,0.023-0.255-0.062-0.277-0.192C126.884,185.981,126.97,185.858,127.102,185.835"/>
		<path clip-path="url(#SVGID_4_)" fill="#FFFFFF" d="M127.005,188.638c0.106-0.075,0.258-0.05,0.333,0.058s0.048,0.256-0.06,0.33
			c-0.107,0.076-0.255,0.05-0.333-0.058C126.871,188.861,126.897,188.712,127.005,188.638"/>
		<path clip-path="url(#SVGID_4_)" fill="#FFFFFF" d="M127.023,187.521c0.114-0.066,0.259-0.027,0.325,0.086
			c0.067,0.113,0.027,0.259-0.086,0.325c-0.115,0.066-0.262,0.027-0.325-0.086C126.87,187.732,126.909,187.587,127.023,187.521"/>
		<path clip-path="url(#SVGID_4_)" fill="#FFFFFF" d="M126.96,190.09c-0.086-0.101-0.072-0.25,0.028-0.335
			c0.101-0.083,0.252-0.071,0.337,0.03c0.082,0.1,0.07,0.25-0.029,0.333C127.194,190.204,127.044,190.19,126.96,190.09"/>
		<path clip-path="url(#SVGID_4_)" fill="#FFFFFF" d="M126.96,189.538c-0.086-0.102-0.072-0.25,0.028-0.335
			c0.101-0.084,0.252-0.071,0.337,0.029c0.082,0.101,0.07,0.25-0.029,0.334C127.194,189.651,127.044,189.638,126.96,189.538"/>
		<path clip-path="url(#SVGID_4_)" fill="#FFFFFF" d="M127.382,184.964c0,0.131-0.108,0.238-0.239,0.238
			c-0.132,0-0.238-0.106-0.238-0.238c0-0.132,0.106-0.238,0.238-0.238C127.273,184.727,127.382,184.832,127.382,184.964"/>
		<path clip-path="url(#SVGID_4_)" fill="#FFFFFF" d="M127.339,181.451c0.129,0.035,0.203,0.164,0.17,0.292
			c-0.035,0.126-0.165,0.201-0.293,0.167c-0.128-0.034-0.203-0.164-0.17-0.291C127.082,181.493,127.213,181.417,127.339,181.451"/>
		<path clip-path="url(#SVGID_4_)" fill="#FFFFFF" d="M127.005,188.085c0.106-0.075,0.258-0.05,0.333,0.058
			c0.075,0.107,0.048,0.256-0.06,0.331s-0.258,0.048-0.333-0.059C126.871,188.308,126.897,188.16,127.005,188.085"/>
		<path clip-path="url(#SVGID_4_)" fill="#FFFFFF" d="M126.888,183.241c0.045-0.124,0.182-0.186,0.307-0.14
			c0.123,0.044,0.188,0.181,0.142,0.303c-0.044,0.124-0.181,0.188-0.305,0.143C126.906,183.501,126.843,183.365,126.888,183.241"/>
		<path clip-path="url(#SVGID_4_)" fill="#FFFFFF" d="M126.974,190.657c-0.096-0.092-0.096-0.243,0-0.335
			c0.093-0.093,0.245-0.093,0.338,0c0.093,0.093,0.093,0.244,0,0.335C127.219,190.75,127.066,190.75,126.974,190.657"/>
		<path clip-path="url(#SVGID_4_)" fill="#FFFFFF" d="M127.184,185.75c-0.131,0.023-0.255-0.064-0.277-0.192
			c-0.022-0.129,0.063-0.252,0.195-0.274c0.13-0.024,0.254,0.063,0.274,0.191C127.399,185.604,127.312,185.728,127.184,185.75"/>
		<path clip-path="url(#SVGID_4_)" fill="#FFFFFF" d="M127.223,182.009c0.124,0.045,0.189,0.182,0.143,0.304
			c-0.044,0.124-0.182,0.188-0.307,0.144c-0.121-0.046-0.187-0.183-0.14-0.306C126.963,182.029,127.1,181.964,127.223,182.009"/>
		<path clip-path="url(#SVGID_4_)" fill="#FFFFFF" d="M127.296,191.965c0.1,0.084,0.111,0.233,0.029,0.334
			c-0.085,0.101-0.236,0.114-0.337,0.03c-0.101-0.085-0.114-0.234-0.028-0.336C127.044,191.895,127.194,191.881,127.296,191.965"/>
		<path clip-path="url(#SVGID_4_)" fill="#FFFFFF" d="M127.263,192.905c-0.114,0.065-0.262,0.026-0.325-0.086
			c-0.067-0.114-0.028-0.26,0.086-0.325c0.114-0.066,0.259-0.026,0.325,0.088C127.416,192.695,127.376,192.839,127.263,192.905"/>
		<path clip-path="url(#SVGID_4_)" fill="#FFFFFF" d="M127.263,194.563c-0.114,0.066-0.262,0.027-0.325-0.087
			c-0.067-0.113-0.028-0.259,0.086-0.324s0.259-0.027,0.325,0.087C127.416,194.352,127.376,194.498,127.263,194.563"/>
		<path clip-path="url(#SVGID_4_)" fill="#FFFFFF" d="M127.296,191.414c0.1,0.083,0.111,0.232,0.029,0.334
			c-0.085,0.101-0.236,0.113-0.337,0.029c-0.101-0.085-0.114-0.234-0.028-0.335C127.044,191.341,127.196,191.329,127.296,191.414"/>
		<path clip-path="url(#SVGID_4_)" fill="#FFFFFF" d="M127.178,182.562c0.125,0.046,0.188,0.182,0.144,0.305
			c-0.045,0.123-0.182,0.186-0.307,0.141c-0.123-0.044-0.186-0.181-0.143-0.303C126.919,182.581,127.056,182.517,127.178,182.562"/>
		<path clip-path="url(#SVGID_4_)" fill="#FFFFFF" d="M127.04,186.959c0.121-0.056,0.263-0.004,0.318,0.115
			c0.055,0.118,0.004,0.259-0.117,0.314c-0.117,0.056-0.259,0.005-0.314-0.115C126.87,187.155,126.922,187.015,127.04,186.959"/>
		<path clip-path="url(#SVGID_4_)" fill="#FFFFFF" d="M127.263,194.011c-0.115,0.064-0.262,0.024-0.328-0.088
			c-0.064-0.113-0.025-0.26,0.089-0.324c0.114-0.066,0.259-0.027,0.325,0.088C127.416,193.799,127.376,193.946,127.263,194.011"/>
		<path clip-path="url(#SVGID_4_)" fill="#FFFFFF" d="M127.059,184.083c-0.121-0.045-0.187-0.182-0.14-0.304
			c0.044-0.124,0.183-0.187,0.304-0.142c0.124,0.044,0.189,0.181,0.143,0.304C127.321,184.065,127.184,184.127,127.059,184.083"/>
		<path clip-path="url(#SVGID_4_)" fill="#FFFFFF" d="M127.143,184.65c-0.132,0-0.238-0.107-0.238-0.239
			c0-0.132,0.106-0.237,0.238-0.237c0.131,0,0.239,0.105,0.239,0.237C127.382,184.543,127.273,184.65,127.143,184.65"/>
		<path clip-path="url(#SVGID_4_)" fill="#FFFFFF" d="M127.023,193.046c0.114-0.065,0.259-0.026,0.325,0.089
			c0.067,0.112,0.027,0.257-0.086,0.323c-0.115,0.065-0.262,0.026-0.328-0.087C126.87,193.257,126.909,193.113,127.023,193.046"/>
		<path clip-path="url(#SVGID_4_)" fill="#FFFFFF" d="M127.263,195.115c-0.115,0.066-0.262,0.028-0.325-0.085
			c-0.067-0.114-0.028-0.261,0.086-0.326s0.259-0.027,0.325,0.088C127.416,194.904,127.376,195.05,127.263,195.115"/>
		<path clip-path="url(#SVGID_4_)" fill="#FFFFFF" d="M126.974,190.874c0.093-0.093,0.245-0.093,0.338,0
			c0.093,0.092,0.093,0.244,0,0.336c-0.093,0.094-0.245,0.094-0.338,0C126.878,191.118,126.878,190.966,126.974,190.874"/>
		<path clip-path="url(#SVGID_4_)" fill="#FFFFFF" d="M127.979,174.336c-0.13,0-0.237-0.106-0.237-0.238
			c0-0.131,0.107-0.238,0.237-0.238c0.134,0,0.239,0.107,0.239,0.238C128.218,174.229,128.112,174.336,127.979,174.336"/>
		<path clip-path="url(#SVGID_4_)" fill="#FFFFFF" d="M127.979,175.549c-0.13,0-0.237-0.106-0.237-0.237
			c0-0.131,0.107-0.238,0.237-0.238c0.134,0,0.239,0.107,0.239,0.238C128.218,175.442,128.112,175.549,127.979,175.549"/>
		<path clip-path="url(#SVGID_4_)" fill="#FFFFFF" d="M127.979,178.579c-0.13,0-0.237-0.106-0.237-0.237
			c0-0.131,0.107-0.238,0.237-0.238c0.134,0,0.239,0.107,0.239,0.238C128.218,178.473,128.112,178.579,127.979,178.579"/>
		<path clip-path="url(#SVGID_4_)" fill="#FFFFFF" d="M127.979,179.185c-0.13,0-0.237-0.106-0.237-0.237s0.107-0.238,0.237-0.238
			c0.134,0,0.239,0.107,0.239,0.238S128.112,179.185,127.979,179.185"/>
		<path clip-path="url(#SVGID_4_)" fill="#FFFFFF" d="M127.979,177.367c-0.13,0-0.237-0.106-0.237-0.237
			c0-0.131,0.107-0.238,0.237-0.238c0.134,0,0.239,0.107,0.239,0.238C128.218,177.261,128.112,177.367,127.979,177.367"/>
		<path clip-path="url(#SVGID_4_)" fill="#FFFFFF" d="M127.979,176.154c-0.13,0-0.237-0.106-0.237-0.238
			c0-0.13,0.107-0.238,0.237-0.238c0.134,0,0.239,0.108,0.239,0.238C128.218,176.048,128.112,176.154,127.979,176.154"/>
		<path clip-path="url(#SVGID_4_)" fill="#FFFFFF" d="M127.979,176.761c-0.13,0-0.237-0.106-0.237-0.238
			c0-0.131,0.107-0.238,0.237-0.238c0.134,0,0.239,0.107,0.239,0.238C128.218,176.654,128.112,176.761,127.979,176.761"/>
		<path clip-path="url(#SVGID_4_)" fill="#FFFFFF" d="M127.979,177.973c-0.13,0-0.237-0.106-0.237-0.236
			c0-0.132,0.107-0.24,0.237-0.24c0.134,0,0.239,0.108,0.239,0.24C128.218,177.866,128.112,177.973,127.979,177.973"/>
		<path clip-path="url(#SVGID_4_)" fill="#FFFFFF" d="M127.45,182.813c0.039-2.888,2.902-4.049,2.902-7.197
			c0-0.535,0.152-0.837,0.285-1.001c-0.152,0.043-0.253,0.078-0.253,0.078s0.159-0.448,0.19-0.595
			c0.029-0.147,0.043-0.115-0.023-0.158c-0.028-0.019-0.038-0.056-0.028-0.1c-0.106-0.048-0.171-0.147-0.185-0.287
			c-0.064-0.591-0.181-1.85-0.181-2.895v-1.726l-0.516-0.563c0,0-0.175-0.606-0.175-1.594c0-0.089-0.002-0.176-0.008-0.263
			c-0.103-0.014-0.359-0.029-0.583,0.088c-0.289,0.151-0.564,0.546-0.564,0.546s-0.027-0.048-0.062-0.153
			c-0.043,0.045-0.105,0.072-0.172,0.072c-0.132,0-0.24-0.105-0.24-0.237c0-0.13,0.108-0.237,0.24-0.237
			c0.032,0,0.061,0.006,0.087,0.017c-0.021-0.155-0.035-0.348-0.029-0.583c0.012-0.805,0.096-0.874,0.096-0.874
			s0.329,0.206,0.659,0.3c0.202,0.059,0.38,0.089,0.484,0.1c-0.042-0.525-0.026-1.023,0.268-1.492
			c0.516-0.815,2.643-0.858,2.643-0.858h0.364c0.08-0.049,0.183-0.115,0.275-0.201h1.84c-0.004,0.076-0.008,0.145-0.012,0.201h0.362
			c0,0,2.127,0.043,2.644,0.858c0.516,0.816,0.174,1.727,0.174,2.715c0,0.988-0.174,1.594-0.174,1.594l-0.517,0.563v1.726
			c0,0.967-0.099,2.117-0.163,2.75c-0.025,0.234-0.112,0.393-0.246,0.448c0.01,0.024,0.013,0.041,0.013,0.041
			s-0.021,0.207,0.03,0.343c0.054,0.136,0.159,0.368,0.159,0.368s-0.066,0-0.21-0.036c0.142,0.147,0.324,0.458,0.324,1.043
			c0,3.147,2.864,4.309,2.901,7.197c0.086,6.424-4.027,7.112-6.301,7.112C131.433,189.925,127.362,189.237,127.45,182.813"/>
		<path clip-path="url(#SVGID_4_)" fill="#FFFFFF" d="M126.663,196.111c0.081-0.252,0.17-0.603,0.17-0.603
			c0-0.17,0.137-0.309,0.31-0.309c0.17,0,0.311,0.139,0.311,0.309c0,0.097-0.028,0.486,0.054,0.729
			c0.081,0.242,0.207,0.334,0.207,0.334s-0.438,0.067-0.554,0.092c-0.116,0.023-0.187,0.023-0.187,0.023l-0.023-0.334l-0.057,0.345
			c0,0-0.093,0.012-0.221,0c-0.126-0.011-0.366-0.08-0.366-0.08S126.58,196.362,126.663,196.111"/>
		<path clip-path="url(#SVGID_4_)" fill="#FFFFFF" d="M128.218,167.429c0,0.133-0.105,0.239-0.237,0.239s-0.239-0.106-0.239-0.239
			c0-0.129,0.107-0.237,0.239-0.237S128.218,167.3,128.218,167.429"/>
		<path clip-path="url(#SVGID_4_)" fill="#FFFFFF" d="M128.215,179.595c-0.022,0.13-0.146,0.216-0.274,0.193
			c-0.13-0.022-0.218-0.147-0.195-0.275c0.022-0.129,0.147-0.216,0.275-0.192C128.151,179.344,128.238,179.466,128.215,179.595"/>
		<path clip-path="url(#SVGID_4_)" fill="#FFFFFF" d="M127.919,180.389c-0.127-0.034-0.202-0.164-0.168-0.29
			c0.032-0.127,0.164-0.203,0.29-0.169c0.128,0.034,0.204,0.164,0.17,0.291C128.177,180.349,128.046,180.423,127.919,180.389"/>
		<path clip-path="url(#SVGID_4_)" fill="#FFFFFF" d="M127.979,169.487c-0.13,0-0.237-0.107-0.237-0.239
			c0-0.13,0.107-0.237,0.237-0.237c0.134,0,0.239,0.106,0.239,0.237C128.218,169.38,128.112,169.487,127.979,169.487"/>
		<path clip-path="url(#SVGID_4_)" fill="#FFFFFF" d="M127.979,168.274c-0.13,0-0.237-0.106-0.237-0.238
			c0-0.13,0.107-0.236,0.237-0.236c0.134,0,0.239,0.105,0.239,0.236C128.218,168.167,128.112,168.274,127.979,168.274"/>
		<path clip-path="url(#SVGID_4_)" fill="#FFFFFF" d="M127.52,180.929c0.127,0.034,0.203,0.164,0.17,0.291
			c-0.036,0.126-0.166,0.203-0.294,0.168c-0.126-0.033-0.203-0.164-0.169-0.29C127.261,180.97,127.394,180.896,127.52,180.929"/>
		<path clip-path="url(#SVGID_4_)" fill="#FFFFFF" d="M127.979,170.699c-0.13,0-0.237-0.106-0.237-0.238
			c0-0.13,0.107-0.237,0.237-0.237c0.134,0,0.239,0.107,0.239,0.237C128.218,170.592,128.112,170.699,127.979,170.699"/>
		<path clip-path="url(#SVGID_4_)" fill="#FFFFFF" d="M127.979,170.092c-0.13,0-0.237-0.106-0.237-0.238s0.107-0.237,0.237-0.237
			c0.134,0,0.239,0.105,0.239,0.237S128.112,170.092,127.979,170.092"/>
		<path clip-path="url(#SVGID_4_)" fill="#FFFFFF" d="M127.979,168.879c-0.13,0-0.237-0.106-0.237-0.237
			c0-0.131,0.107-0.237,0.237-0.237c0.134,0,0.239,0.106,0.239,0.237C128.218,168.773,128.112,168.879,127.979,168.879"/>
		<path clip-path="url(#SVGID_4_)" fill="#FFFFFF" d="M127.911,180.698c-0.033,0.127-0.164,0.203-0.293,0.169
			c-0.127-0.035-0.201-0.164-0.166-0.291c0.033-0.127,0.163-0.202,0.291-0.168S127.946,180.572,127.911,180.698"/>
		<path clip-path="url(#SVGID_4_)" fill="#FFFFFF" d="M127.979,171.911c-0.13,0-0.237-0.106-0.237-0.238
			c0-0.13,0.107-0.236,0.237-0.236c0.134,0,0.239,0.106,0.239,0.236C128.218,171.805,128.112,171.911,127.979,171.911"/>
		<path clip-path="url(#SVGID_4_)" fill="#FFFFFF" d="M127.979,171.305c-0.13,0-0.237-0.106-0.237-0.239
			c0-0.13,0.107-0.237,0.237-0.237c0.134,0,0.239,0.106,0.239,0.237C128.218,171.199,128.112,171.305,127.979,171.305"/>
		<path clip-path="url(#SVGID_4_)" fill="#FFFFFF" d="M127.979,173.124c-0.13,0-0.237-0.107-0.237-0.237
			c0-0.132,0.107-0.238,0.237-0.238c0.134,0,0.239,0.106,0.239,0.238C128.218,173.017,128.112,173.124,127.979,173.124"/>
		<path clip-path="url(#SVGID_4_)" fill="#FFFFFF" d="M127.979,173.729c-0.13,0-0.237-0.105-0.237-0.238
			c0-0.13,0.107-0.237,0.237-0.237c0.134,0,0.239,0.107,0.239,0.237C128.218,173.624,128.112,173.729,127.979,173.729"/>
		<path clip-path="url(#SVGID_4_)" fill="#FFFFFF" d="M127.979,174.941c-0.13,0-0.237-0.105-0.237-0.236
			c0-0.131,0.107-0.239,0.237-0.239c0.134,0,0.239,0.107,0.239,0.239C128.218,174.836,128.112,174.941,127.979,174.941"/>
		<path clip-path="url(#SVGID_4_)" fill="#FFFFFF" d="M127.979,172.518c-0.13,0-0.237-0.106-0.237-0.238
			c0-0.132,0.107-0.238,0.237-0.238c0.134,0,0.239,0.106,0.239,0.238C128.218,172.411,128.112,172.518,127.979,172.518"/>
		<rect x="133.536" y="-3.293" clip-path="url(#SVGID_4_)" fill="#FFFFFF" width="0.441" height="171.801"/>
	</g>
</g>
</svg>
